<?xml version="1.0" encoding="utf-8"?>
<!-- Generator: Adobe Illustrator 24.3.0, SVG Export Plug-In . SVG Version: 6.00 Build 0)  -->
<svg version="1.1" id="Layer_1" xmlns="http://www.w3.org/2000/svg" xmlns:xlink="http://www.w3.org/1999/xlink" x="0px" y="0px"
	 viewBox="0 0 115 115" style="enable-background:new 0 0 115 115;" xml:space="preserve">
<style type="text/css">
	.st0{fill:#593196;}
	.st1{fill:#FFFFFF;}
</style>
<rect class="st0" width="115" height="115"/>
<g>
	<path class="st1" d="M92.11,67.3c-0.55,3.29-1.53,6.49-2.95,9.6c-1.42,3.11-3.36,5.9-5.83,8.36s-5.53,4.46-9.19,5.96
		c-3.66,1.51-8,2.26-13.02,2.26c-5.48,0-10.54-0.73-15.15-2.2c-4.62-1.47-8.59-3.68-11.93-6.66c-3.34-2.98-5.94-6.75-7.81-11.33
		c-1.87-4.58-2.81-10.03-2.81-16.34c0-12.18,3.34-21.63,10.01-28.36c6.67-6.73,15.9-10.1,27.69-10.1c4.39,0,8.41,0.51,12.06,1.54
		c3.65,1.02,6.83,2.44,9.53,4.25c2.69,1.81,4.8,3.93,6.31,6.35c1.51,2.42,2.26,5.05,2.26,7.88c0,2.93-0.82,5.33-2.47,7.2
		c-1.65,1.87-4.07,2.81-7.27,2.81c-3.02,0-5.35-0.84-6.99-2.54c-1.65-1.69-2.47-3.72-2.47-6.1c0-2.1,0.75-3.91,2.26-5.42
		c1.51-1.51,3.36-2.35,5.55-2.54c-1.55-1.73-3.53-3.11-5.94-4.11c-2.41-1-5.67-1.51-9.77-1.51c-7.1,0-12.55,2.38-16.33,7.13
		c-3.78,4.75-5.67,11.84-5.67,21.25c0,5.3,0.52,9.85,1.57,13.64c1.05,3.79,2.53,6.88,4.44,9.25c1.92,2.38,4.17,4.14,6.77,5.28
		c2.6,1.14,5.4,1.71,8.41,1.71c2.37,0,4.67-0.34,6.9-1.03c2.23-0.69,4.26-1.76,6.08-3.22c1.82-1.46,3.35-3.34,4.58-5.62
		c1.23-2.28,2.07-5.07,2.53-8.36L92.11,67.3z"/>
</g>
</svg>
