<?xml version="1.0" encoding="utf-8"?>
<!-- Generator: Adobe Illustrator 24.1.2, SVG Export Plug-In . SVG Version: 6.00 Build 0)  -->
<svg version="1.1" id="Layer_1" xmlns="http://www.w3.org/2000/svg" xmlns:xlink="http://www.w3.org/1999/xlink" x="0px" y="0px"
	 viewBox="0 0 452 129" style="enable-background:new 0 0 452 129;" xml:space="preserve">
<style type="text/css">
	.st0{fill:#6C757D;}
	.st1{font-family:'Superclarendon-Regular';}
	.st2{font-size:72px;}
	.st3{fill:#007BFF;}
</style>
<text transform="matrix(1 0 0 1 -2.4736 68.4209)"><tspan x="0" y="0" class="st0 st1 st2">chrol</tspan><tspan x="212.4" y="0" class="st3 st1 st2">ogo</tspan><tspan x="357.26" y="0" class="st0 st1 st2">ny</tspan></text>
<path class="st3" d="M232.85,9.16c11.85,0,21.66,8.6,23.45,19.84c0.42-1.76,0.65-3.59,0.65-5.47C256.96,10.53,246.33,0,233.22,0
	s-23.74,10.53-23.74,23.53c0,1.25,0.1,2.48,0.29,3.69C212.26,16.86,221.65,9.16,232.85,9.16z"/>
<path class="st3" d="M318.98,79.05c-0.01-0.19-0.01-0.37-0.02-0.56c-0.02,0.07-0.04,0.14-0.05,0.2c-0.02-0.08-0.03-0.16-0.05-0.24
	c-0.07,0.45-0.16,0.9-0.25,1.35c-3.66,12.07-19.96,21.2-39.61,21.38c-19.65-0.19-35.95-9.32-39.61-21.38
	c-0.09-0.45-0.17-0.9-0.25-1.35c-0.02,0.08-0.03,0.16-0.05,0.24c-0.02-0.07-0.04-0.14-0.05-0.2c-0.01,0.19-0.01,0.37-0.02,0.56
	C238.36,81.93,238,84.92,238,88c0,22.48,18.31,40.72,41,40.99c22.69-0.27,41-18.51,41-40.99C320,84.92,319.64,81.93,318.98,79.05z
	 M279,113c-15.06-0.4-28.12-8.71-35.06-20.89c6.79,8.1,19.91,13.63,35.06,13.87c15.15-0.24,28.27-5.77,35.06-13.87
	C307.12,104.29,294.06,112.6,279,113z"/>
<path class="st3" d="M332.07,9.58c11.85,0,21.66,8.6,23.45,19.84c0.42-1.76,0.65-3.59,0.65-5.47c0-12.99-10.63-23.53-23.74-23.53
	s-23.74,10.53-23.74,23.53c0,1.25,0.1,2.48,0.29,3.69C311.47,17.28,320.86,9.58,332.07,9.58z"/>
</svg>
