<?xml version="1.0" encoding="utf-8"?>
<!-- Generator: Adobe Illustrator 24.3.0, SVG Export Plug-In . SVG Version: 6.00 Build 0)  -->
<svg version="1.1" id="Layer_1" xmlns="http://www.w3.org/2000/svg" xmlns:xlink="http://www.w3.org/1999/xlink" x="0px" y="0px"
	 viewBox="0 0 452 129" style="enable-background:new 0 0 452 129;" xml:space="preserve">
<style type="text/css">
	.st0{fill:#868E96;}
	.st1{fill:#593196;}
</style>
<g>
	<path class="st0" d="M36.69,55.89c-0.29,1.73-0.8,3.41-1.55,5.04c-0.74,1.63-1.76,3.1-3.06,4.39c-1.3,1.3-2.9,2.34-4.82,3.13
		c-1.92,0.79-4.2,1.19-6.84,1.19c-2.88,0-5.53-0.38-7.96-1.15c-2.42-0.77-4.51-1.94-6.26-3.5c-1.75-1.56-3.12-3.55-4.1-5.95
		c-0.98-2.4-1.48-5.27-1.48-8.58c0-6.4,1.75-11.36,5.26-14.9c3.5-3.53,8.35-5.3,14.54-5.3c2.3,0,4.42,0.27,6.34,0.81
		c1.92,0.54,3.59,1.28,5,2.23c1.42,0.95,2.52,2.06,3.31,3.33c0.79,1.27,1.19,2.65,1.19,4.14c0,1.54-0.43,2.8-1.3,3.78
		c-0.86,0.98-2.14,1.48-3.82,1.48c-1.58,0-2.81-0.44-3.67-1.33c-0.86-0.89-1.3-1.96-1.3-3.2c0-1.1,0.4-2.05,1.19-2.84
		c0.79-0.79,1.76-1.24,2.92-1.33c-0.81-0.91-1.85-1.63-3.12-2.16c-1.27-0.53-2.98-0.79-5.13-0.79c-3.73,0-6.59,1.25-8.57,3.74
		c-1.98,2.5-2.98,6.22-2.98,11.16c0,2.78,0.27,5.17,0.83,7.16c0.55,1.99,1.33,3.61,2.33,4.86c1.01,1.25,2.19,2.17,3.55,2.77
		c1.36,0.6,2.84,0.9,4.42,0.9c1.24,0,2.45-0.18,3.63-0.54c1.17-0.36,2.24-0.92,3.2-1.69c0.96-0.77,1.76-1.75,2.41-2.95
		c0.65-1.2,1.09-2.66,1.33-4.39L36.69,55.89z"/>
	<path class="st0" d="M58.37,39.12c1.82-2.35,4.04-4.28,6.66-5.8c2.62-1.51,5.68-2.27,9.18-2.27c3.6,0,6.34,0.84,8.21,2.52
		c1.87,1.68,2.81,4.42,2.81,8.21v19.3c0,2.16,2.09,3.24,6.26,3.24v4.1H70.53v-4.1c3.21,0,4.82-1.08,4.82-3.24V44.95
		c0-3.02-0.41-5.18-1.22-6.48c-0.82-1.3-2.04-1.94-3.67-1.94c-1.25,0-2.46,0.24-3.64,0.72c-1.18,0.48-2.3,1.15-3.38,2.02
		c-1.08,0.86-2.05,1.88-2.92,3.06c-0.86,1.18-1.58,2.44-2.16,3.78v14.98c0,2.16,1.61,3.24,4.82,3.24v4.1H42.31v-4.1
		c4.13,0,6.19-1.08,6.19-3.24V20.32c0-2.16-2.04-3.24-6.12-3.24v-4.1h15.98V39.12z"/>
	<path class="st0" d="M113.09,38.61c1.39-2.74,3.08-4.73,5.08-5.98c1.99-1.25,4.14-1.87,6.44-1.87c1.06,0,2.15,0.17,3.28,0.51
		c1.13,0.34,2.15,0.88,3.06,1.61c0.91,0.73,1.66,1.67,2.23,2.8c0.58,1.13,0.86,2.47,0.86,4c0,1.82-0.49,3.32-1.48,4.5
		c-0.98,1.18-2.32,1.76-4,1.76c-1.68,0-2.95-0.44-3.82-1.33c-0.86-0.89-1.3-1.96-1.3-3.2c0-1.2,0.4-2.21,1.19-3.02
		c0.79-0.82,2-1.25,3.64-1.3c-0.38-0.72-1.01-1.27-1.87-1.66c-0.86-0.38-1.78-0.58-2.74-0.58c-0.86,0-1.79,0.22-2.77,0.65
		c-0.98,0.43-1.94,1.08-2.88,1.94c-0.94,0.86-1.84,1.98-2.7,3.35c-0.86,1.37-1.61,2.99-2.23,4.86v15.41c0,1.1,0.6,1.92,1.8,2.45
		c1.2,0.53,2.95,0.79,5.26,0.79v4.1H97.03v-4.1c4.13,0,6.19-1.08,6.19-3.24V39.12c0-2.16-2.06-3.24-6.19-3.24v-4.1h16.06V38.61z"/>
	<path class="st0" d="M179.54,49.95c0,6.28-1.73,11.13-5.18,14.55c-3.46,3.43-8.47,5.14-15.05,5.14c-2.59,0-5.06-0.3-7.42-0.9
		c-2.35-0.6-4.4-1.63-6.16-3.09c-1.75-1.46-3.16-3.4-4.21-5.82c-1.06-2.42-1.58-5.43-1.58-9.02c0-6.56,1.66-11.61,4.97-15.13
		c3.31-3.52,8.38-5.28,15.19-5.28c2.64,0,5.15,0.32,7.52,0.97c2.38,0.65,4.44,1.72,6.19,3.23c1.75,1.51,3.14,3.51,4.18,6
		C179.02,43.1,179.54,46.22,179.54,49.95z M160.06,35.08c-3.59,0-6.19,1.16-7.82,3.49c-1.63,2.33-2.44,5.68-2.44,10.04
		c0,3.26,0.21,5.95,0.65,8.06c0.43,2.11,1.06,3.78,1.9,5c0.84,1.22,1.84,2.08,3.01,2.56c1.17,0.48,2.52,0.72,4.05,0.72
		c3.78,0,6.43-1.27,7.96-3.82c1.53-2.54,2.3-6.14,2.3-10.8c0-3.02-0.23-5.52-0.68-7.49c-0.45-1.97-1.11-3.53-1.97-4.68
		c-0.86-1.15-1.88-1.96-3.05-2.41C162.8,35.31,161.5,35.08,160.06,35.08z"/>
	<path class="st0" d="M200.92,61.08c0,2.16,2.09,3.24,6.26,3.24v4.1h-22.32v-4.1c4.13,0,6.19-1.08,6.19-3.24V20.32
		c0-2.16-2.06-3.24-6.19-3.24v-4.1h16.06V61.08z"/>
	<path class="st1" d="M252.62,49.95c0,6.28-1.73,11.13-5.18,14.55c-3.46,3.43-8.47,5.14-15.05,5.14c-2.59,0-5.06-0.3-7.42-0.9
		c-2.35-0.6-4.4-1.63-6.16-3.09c-1.75-1.46-3.16-3.4-4.21-5.82c-1.06-2.42-1.58-5.43-1.58-9.02c0-6.56,1.66-11.61,4.97-15.13
		c3.31-3.52,8.38-5.28,15.19-5.28c2.64,0,5.15,0.32,7.52,0.97c2.38,0.65,4.44,1.72,6.19,3.23c1.75,1.51,3.14,3.51,4.18,6
		C252.1,43.1,252.62,46.22,252.62,49.95z M233.14,35.08c-3.59,0-6.19,1.16-7.82,3.49c-1.63,2.33-2.44,5.68-2.44,10.04
		c0,3.26,0.21,5.95,0.65,8.06c0.43,2.11,1.06,3.78,1.9,5c0.84,1.22,1.84,2.08,3.01,2.56c1.17,0.48,2.52,0.72,4.05,0.72
		c3.78,0,6.43-1.27,7.96-3.82c1.53-2.54,2.3-6.14,2.3-10.8c0-3.02-0.23-5.52-0.68-7.49c-0.45-1.97-1.11-3.53-1.97-4.68
		c-0.86-1.15-1.88-1.96-3.05-2.41C235.88,35.31,234.58,35.08,233.14,35.08z"/>
	<path class="st1" d="M268.68,70.36c-1.2,0.34-2.04,0.91-2.52,1.73c-0.48,0.82-0.72,1.7-0.72,2.66c0,0.91,0.3,1.78,0.9,2.59
		c0.6,0.82,1.46,1.52,2.59,2.12c1.13,0.6,2.5,1.08,4.1,1.44c1.61,0.36,3.42,0.54,5.44,0.54c4.94,0,8.54-0.62,10.8-1.87
		c2.26-1.25,3.38-3.05,3.38-5.4c0-0.86-0.16-1.64-0.47-2.34c-0.31-0.7-0.92-1.31-1.84-1.84c-0.91-0.53-2.18-0.98-3.82-1.37
		c-1.63-0.38-3.77-0.72-6.41-1.01c-3.12-0.34-5.83-0.68-8.14-1.04c-2.3-0.36-4.21-0.82-5.72-1.37c-1.51-0.55-2.64-1.26-3.38-2.12
		c-0.75-0.86-1.12-1.99-1.12-3.38c0-1.25,0.34-2.38,1.01-3.38c0.67-1.01,1.56-1.8,2.66-2.38c-1.39-0.86-2.47-2.03-3.24-3.49
		c-0.77-1.46-1.15-3.35-1.15-5.65c0-4.56,1.52-7.87,4.57-9.94c3.05-2.06,7.21-3.1,12.49-3.1c5.33,0,9.41,0.84,12.24,2.52
		c1.06-1.15,2.24-1.98,3.56-2.48c1.32-0.5,2.75-0.76,4.28-0.76c0.86,0,1.82,0.16,2.88,0.47c1.06,0.31,2.05,0.8,2.99,1.48
		c0.94,0.67,1.73,1.57,2.38,2.7c0.65,1.13,0.97,2.51,0.97,4.14c0,1.73-0.43,3.04-1.3,3.92c-0.86,0.89-1.99,1.33-3.38,1.33
		c-1.54,0-2.7-0.41-3.49-1.22c-0.79-0.82-1.19-1.78-1.19-2.88c0-1.25,0.41-2.23,1.22-2.95c0.82-0.72,1.97-1.08,3.46-1.08
		c-0.34-0.82-1.02-1.45-2.05-1.91c-1.03-0.46-2.1-0.68-3.2-0.68c-1.39,0-2.9,0.65-4.54,1.94c1.06,1.01,1.82,2.14,2.3,3.38
		c0.48,1.25,0.72,2.76,0.72,4.54c0,2.4-0.46,4.42-1.37,6.05c-0.91,1.63-2.17,2.95-3.78,3.96c-1.61,1.01-3.5,1.73-5.69,2.16
		c-2.18,0.43-4.52,0.65-7.02,0.65c-2.16,0-4.02-0.1-5.58-0.29c-1.56-0.19-2.96-0.55-4.21-1.08c-0.82,0.24-1.22,0.72-1.22,1.44
		c0,0.43,0.14,0.83,0.43,1.19c0.29,0.36,0.94,0.71,1.94,1.04c1.01,0.34,2.51,0.67,4.5,1.01c1.99,0.34,4.69,0.67,8.1,1.01
		c3.79,0.38,6.88,0.88,9.25,1.48c2.38,0.6,4.24,1.36,5.58,2.27c1.34,0.91,2.26,1.98,2.74,3.2c0.48,1.22,0.72,2.63,0.72,4.21
		c0,8.26-7.39,12.38-22.18,12.38c-6.96,0-12.07-0.7-15.34-2.09c-3.26-1.39-4.9-3.77-4.9-7.13c0-1.25,0.26-2.33,0.79-3.24
		c0.53-0.91,1.22-1.68,2.09-2.3c0.86-0.62,1.87-1.08,3.02-1.37s2.35-0.43,3.6-0.43L268.68,70.36z M278.11,35.44
		c-3.17,0-5.46,0.71-6.88,2.12c-1.42,1.42-2.12,3.71-2.12,6.88s0.77,5.47,2.3,6.91c1.54,1.44,3.77,2.16,6.7,2.16
		c2.93,0,5.17-0.73,6.73-2.2c1.56-1.46,2.34-3.78,2.34-6.95c0-3.26-0.84-5.57-2.52-6.91C282.98,36.12,280.79,35.44,278.11,35.44z"/>
	<path class="st1" d="M352.27,49.95c0,6.28-1.73,11.13-5.18,14.55c-3.46,3.43-8.47,5.14-15.05,5.14c-2.59,0-5.06-0.3-7.42-0.9
		c-2.35-0.6-4.4-1.63-6.16-3.09c-1.75-1.46-3.16-3.4-4.21-5.82c-1.06-2.42-1.58-5.43-1.58-9.02c0-6.56,1.66-11.61,4.97-15.13
		c3.31-3.52,8.38-5.28,15.19-5.28c2.64,0,5.15,0.32,7.52,0.97c2.38,0.65,4.44,1.72,6.19,3.23c1.75,1.51,3.14,3.51,4.18,6
		C351.75,43.1,352.27,46.22,352.27,49.95z M332.79,35.08c-3.59,0-6.19,1.16-7.82,3.49c-1.63,2.33-2.44,5.68-2.44,10.04
		c0,3.26,0.21,5.95,0.65,8.06c0.43,2.11,1.06,3.78,1.9,5c0.84,1.22,1.84,2.08,3.01,2.56c1.17,0.48,2.52,0.72,4.05,0.72
		c3.78,0,6.43-1.27,7.96-3.82c1.53-2.54,2.3-6.14,2.3-10.8c0-3.02-0.23-5.52-0.68-7.49c-0.45-1.97-1.11-3.53-1.97-4.68
		c-0.86-1.15-1.88-1.96-3.05-2.41C335.53,35.31,334.22,35.08,332.79,35.08z"/>
	<path class="st0" d="M401.3,61.08c0,2.16,2.11,3.24,6.34,3.24v4.1h-21.02v-4.1c3.21,0,4.82-1.08,4.82-3.24V45.09
		c0-3.02-0.48-5.18-1.44-6.48c-0.96-1.3-2.26-1.94-3.89-1.94c-1.25,0-2.48,0.24-3.71,0.72c-1.22,0.48-2.39,1.15-3.49,2.02
		c-1.1,0.86-2.11,1.88-3.02,3.06c-0.91,1.18-1.66,2.44-2.23,3.78v14.83c0,2.16,1.61,3.24,4.82,3.24v4.1h-20.88v-4.1
		c4.13,0,6.19-1.08,6.19-3.24V39.12c0-2.16-2.06-3.24-6.19-3.24v-4.1h16.06l0.02,7.34c1.83-2.35,4.11-4.28,6.85-5.8
		c2.74-1.51,5.87-2.27,9.38-2.27c3.61,0,6.41,0.84,8.4,2.52c2,1.68,2.99,4.42,2.99,8.21V61.08z"/>
	<path class="st0" d="M451.27,35.88c-1.73,0-3,0.2-3.82,0.61c-0.82,0.41-1.39,1.02-1.73,1.84l-13.1,31.54
		c-1.01,2.45-1.93,4.6-2.77,6.44c-0.84,1.85-1.78,3.41-2.81,4.68c-1.03,1.27-2.24,2.23-3.64,2.88c-1.39,0.65-3.14,0.97-5.26,0.97
		c-3.31,0-6-0.83-8.06-2.48c-2.06-1.66-3.1-3.88-3.1-6.66c0-0.48,0.1-1.03,0.29-1.66c0.19-0.62,0.5-1.2,0.94-1.73
		c0.43-0.53,0.96-0.97,1.58-1.33c0.62-0.36,1.37-0.54,2.23-0.54c1.68,0,2.93,0.41,3.74,1.22c0.82,0.82,1.22,1.77,1.22,2.88
		c0,1.25-0.37,2.22-1.12,2.92c-0.74,0.7-1.74,1.12-2.99,1.26c0.43,0.7,1.04,1.27,1.84,1.71c0.79,0.44,2.1,0.66,3.92,0.66
		c1.73,0,3.14-0.7,4.25-2.08c1.1-1.39,2.33-3.55,3.67-6.47l-14.4-34.15c-0.82-1.68-2.54-2.52-5.18-2.52v-4.1h20.59v4.1h-3.53
		c-1.39,0-2.09,0.46-2.09,1.37c0,0.38,0.07,0.74,0.22,1.08l9.36,23.54l9.5-22.9c0.14-0.43,0.22-0.82,0.22-1.15
		c0-1.3-1.03-1.94-3.1-1.94H436v-4.1h15.26V35.88z"/>
</g>
<path class="st1" d="M232.85,9.16c11.85,0,21.66,8.6,23.45,19.84c0.42-1.76,0.65-3.59,0.65-5.47C256.96,10.53,246.33,0,233.22,0
	s-23.74,10.53-23.74,23.53c0,1.25,0.1,2.48,0.29,3.69C212.26,16.86,221.65,9.16,232.85,9.16z"/>
<path class="st1" d="M318.98,79.05c-0.01-0.19-0.01-0.37-0.02-0.56c-0.02,0.07-0.04,0.14-0.05,0.2c-0.02-0.08-0.03-0.16-0.05-0.24
	c-0.07,0.45-0.16,0.9-0.25,1.35c-3.66,12.07-19.96,21.2-39.61,21.38c-19.65-0.19-35.95-9.32-39.61-21.38
	c-0.09-0.45-0.17-0.9-0.25-1.35c-0.02,0.08-0.03,0.16-0.05,0.24c-0.02-0.07-0.04-0.14-0.05-0.2c-0.01,0.19-0.01,0.37-0.02,0.56
	C238.36,81.93,238,84.92,238,88c0,22.48,18.31,40.72,41,40.99c22.69-0.27,41-18.51,41-40.99C320,84.92,319.64,81.93,318.98,79.05z
	 M279,113c-15.06-0.4-28.12-8.71-35.06-20.89c6.79,8.1,19.91,13.63,35.06,13.87c15.15-0.24,28.27-5.77,35.06-13.87
	C307.12,104.29,294.06,112.6,279,113z"/>
<path class="st1" d="M332.07,9.58c11.85,0,21.66,8.6,23.45,19.84c0.42-1.76,0.65-3.59,0.65-5.47c0-12.99-10.63-23.53-23.74-23.53
	s-23.74,10.53-23.74,23.53c0,1.25,0.1,2.48,0.29,3.69C311.47,17.28,320.86,9.58,332.07,9.58z"/>
</svg>
