<svg id="Layer_1" data-name="Layer 1" xmlns="http://www.w3.org/2000/svg" viewBox="0 0 450.64 103.27"><defs><style>.cls-1{fill:#868e96;}.cls-2{fill:#593196;}</style></defs><path class="cls-1" d="M36.69,55.89a19.82,19.82,0,0,1-1.54,5,15,15,0,0,1-3.06,4.39,14.58,14.58,0,0,1-4.83,3.14,17.92,17.92,0,0,1-6.84,1.19,26.1,26.1,0,0,1-8-1.16A16.87,16.87,0,0,1,6.2,65,15.79,15.79,0,0,1,2.1,59,22.45,22.45,0,0,1,.62,50.46q0-9.6,5.26-14.9t14.54-5.3a23.35,23.35,0,0,1,6.34.81,17.24,17.24,0,0,1,5,2.23,11,11,0,0,1,3.31,3.33,7.66,7.66,0,0,1,1.19,4.14A5.52,5.52,0,0,1,35,44.55,4.81,4.81,0,0,1,31.15,46a4.87,4.87,0,0,1-3.67-1.33,4.42,4.42,0,0,1-1.3-3.21,3.88,3.88,0,0,1,1.19-2.84,4.49,4.49,0,0,1,2.92-1.33,8.63,8.63,0,0,0-3.12-2.16,13.58,13.58,0,0,0-5.13-.8q-5.59,0-8.58,3.75t-3,11.16a27.17,27.17,0,0,0,.82,7.16,13.11,13.11,0,0,0,2.34,4.86,9.25,9.25,0,0,0,3.55,2.77,10.69,10.69,0,0,0,4.42.9,12.26,12.26,0,0,0,3.62-.54,9.56,9.56,0,0,0,3.2-1.69,9.39,9.39,0,0,0,2.4-2.95,12.9,12.9,0,0,0,1.33-4.39Z" transform="translate(-0.62 0)"/><path class="cls-1" d="M58.37,39.12A22.65,22.65,0,0,1,65,33.32a18,18,0,0,1,9.18-2.27q5.4,0,8.2,2.52c1.88,1.68,2.81,4.42,2.81,8.21v19.3q0,3.24,6.27,3.24v4.1h-21v-4.1q4.83,0,4.83-3.24V45c0-3-.41-5.18-1.23-6.48a4,4,0,0,0-3.67-1.95,9.49,9.49,0,0,0-3.63.73,13.77,13.77,0,0,0-3.39,2,16,16,0,0,0-2.91,3.06,18.65,18.65,0,0,0-2.16,3.78v15c0,2.16,1.6,3.24,4.82,3.24v4.1H42.31v-4.1q6.19,0,6.19-3.24V20.32c0-2.15-2-3.24-6.12-3.24V13h16Z" transform="translate(-0.62 0)"/><path class="cls-1" d="M113.09,38.61a14.64,14.64,0,0,1,5.07-6,11.9,11.9,0,0,1,6.45-1.87,11.33,11.33,0,0,1,3.27.51,9,9,0,0,1,3.06,1.61,8.38,8.38,0,0,1,2.23,2.8,8.67,8.67,0,0,1,.87,4,6.78,6.78,0,0,1-1.48,4.5,4.91,4.91,0,0,1-4,1.77,5.07,5.07,0,0,1-3.82-1.34,4.42,4.42,0,0,1-1.3-3.2,4.16,4.16,0,0,1,1.19-3,5.08,5.08,0,0,1,3.64-1.3,3.83,3.83,0,0,0-1.87-1.66,6.53,6.53,0,0,0-5.51.08A10.36,10.36,0,0,0,118,37.46a16.15,16.15,0,0,0-2.7,3.35,21.9,21.9,0,0,0-2.23,4.86V61.08a2.58,2.58,0,0,0,1.8,2.44,13.46,13.46,0,0,0,5.25.8v4.1H97v-4.1q6.19,0,6.19-3.24v-22q0-3.24-6.19-3.24V31.77h16.06Z" transform="translate(-0.62 0)"/><path class="cls-1" d="M179.54,50q0,9.42-5.18,14.56t-15.05,5.14a30.41,30.41,0,0,1-7.42-.9,14.81,14.81,0,0,1-10.36-8.92,22.43,22.43,0,0,1-1.59-9q0-9.85,5-15.13T160.1,30.4a28.33,28.33,0,0,1,7.52,1A14.94,14.94,0,0,1,178,40.61,24.57,24.57,0,0,1,179.54,50ZM160.06,35.08q-5.37,0-7.82,3.5t-2.43,10a41.7,41.7,0,0,0,.64,8.07,13.9,13.9,0,0,0,1.9,5,6.83,6.83,0,0,0,3,2.56,10.7,10.7,0,0,0,4.06.71q5.67,0,8-3.81t2.3-10.8a34.41,34.41,0,0,0-.68-7.49,12.55,12.55,0,0,0-2-4.68A6.94,6.94,0,0,0,164,35.77,10.59,10.59,0,0,0,160.06,35.08Z" transform="translate(-0.62 0)"/><path class="cls-1" d="M200.92,61.08q0,3.24,6.27,3.24v4.1H184.87v-4.1q6.19,0,6.19-3.24V20.32c0-2.15-2.06-3.24-6.19-3.24V13h16Z" transform="translate(-0.62 0)"/><path class="cls-2" d="M252.62,50q0,9.42-5.18,14.56t-15.05,5.14a30.41,30.41,0,0,1-7.42-.9,14.85,14.85,0,0,1-10.37-8.92,22.62,22.62,0,0,1-1.58-9q0-9.85,5-15.13t15.19-5.29a28.33,28.33,0,0,1,7.52,1,14.94,14.94,0,0,1,10.37,9.23A24.57,24.57,0,0,1,252.62,50ZM233.14,35.08q-5.37,0-7.82,3.5t-2.44,10a41.6,41.6,0,0,0,.65,8.07,13.71,13.71,0,0,0,1.9,5,6.83,6.83,0,0,0,3,2.56,10.66,10.66,0,0,0,4.06.71c3.77,0,6.43-1.27,8-3.81s2.3-6.14,2.3-10.8a33.72,33.72,0,0,0-.69-7.49,12.38,12.38,0,0,0-2-4.68,7,7,0,0,0-3-2.41A10.59,10.59,0,0,0,233.14,35.08Z" transform="translate(-0.62 0)"/><path class="cls-2" d="M268.68,70.36a4,4,0,0,0-2.52,1.73,5.1,5.1,0,0,0-.72,2.67,4.3,4.3,0,0,0,.89,2.59,7.6,7.6,0,0,0,2.6,2.12,16.19,16.19,0,0,0,4.1,1.44,25,25,0,0,0,5.44.54q7.41,0,10.8-1.87a5.89,5.89,0,0,0,3.38-5.4,5.72,5.72,0,0,0-.47-2.34A4.19,4.19,0,0,0,290.35,70a14.69,14.69,0,0,0-3.82-1.36,54.17,54.17,0,0,0-6.41-1q-4.68-.51-8.13-1a30.48,30.48,0,0,1-5.73-1.36,7.88,7.88,0,0,1-3.38-2.13,5,5,0,0,1-1.12-3.38,6,6,0,0,1,1-3.39A7,7,0,0,1,265.44,54a8.85,8.85,0,0,1-3.24-3.49A12.14,12.14,0,0,1,261,44.8c0-4.55,1.53-7.87,4.58-9.93s7.21-3.1,12.49-3.1,9.4.84,12.24,2.52a9.25,9.25,0,0,1,3.56-2.48,11.8,11.8,0,0,1,4.29-.76,10.38,10.38,0,0,1,2.88.47,9.89,9.89,0,0,1,3,1.48,8.37,8.37,0,0,1,2.38,2.7,8.18,8.18,0,0,1,1,4.14,5.43,5.43,0,0,1-1.29,3.92,4.53,4.53,0,0,1-3.39,1.33,4.62,4.62,0,0,1-3.49-1.22A4,4,0,0,1,298.05,41a3.72,3.72,0,0,1,1.23-3A5,5,0,0,1,302.73,37a3.66,3.66,0,0,0-2.05-1.91,7.78,7.78,0,0,0-3.2-.69,7.5,7.5,0,0,0-4.54,2,9.38,9.38,0,0,1,2.3,3.38,12.68,12.68,0,0,1,.72,4.54,12.28,12.28,0,0,1-1.36,6.05,11,11,0,0,1-3.79,4,16.77,16.77,0,0,1-5.68,2.16,36.42,36.42,0,0,1-7,.64,47.08,47.08,0,0,1-5.58-.28,15.62,15.62,0,0,1-4.22-1.08,1.45,1.45,0,0,0-1.22,1.44,1.88,1.88,0,0,0,.43,1.18,4.33,4.33,0,0,0,2,1.05,31.94,31.94,0,0,0,4.5,1c2,.33,4.69.67,8.1,1a67.28,67.28,0,0,1,9.25,1.48,17.85,17.85,0,0,1,5.58,2.27,7.12,7.12,0,0,1,2.74,3.2,11.72,11.72,0,0,1,.71,4.21q0,12.39-22.17,12.39-10.44,0-15.34-2.09T258,75.69a6.32,6.32,0,0,1,.79-3.24,7.29,7.29,0,0,1,2.09-2.3,8.61,8.61,0,0,1,3-1.37,14.67,14.67,0,0,1,3.6-.43Zm9.43-34.92q-4.75,0-6.88,2.13c-1.42,1.42-2.12,3.71-2.12,6.87s.76,5.48,2.3,6.92,3.77,2.16,6.7,2.16,5.17-.73,6.73-2.2,2.34-3.78,2.34-7-.84-5.56-2.52-6.91A10.2,10.2,0,0,0,278.11,35.44Z" transform="translate(-0.62 0)"/><path class="cls-2" d="M352.27,50q0,9.42-5.19,14.56T332,69.65a30.32,30.32,0,0,1-7.41-.9,14.8,14.8,0,0,1-10.37-8.92,22.44,22.44,0,0,1-1.58-9q0-9.85,5-15.13t15.2-5.29a28.39,28.39,0,0,1,7.52,1,15.49,15.49,0,0,1,6.19,3.23,15.68,15.68,0,0,1,4.18,6A24.57,24.57,0,0,1,352.27,50ZM332.79,35.08c-3.59,0-6.19,1.17-7.82,3.5s-2.44,5.67-2.44,10a41.6,41.6,0,0,0,.65,8.07,13.71,13.71,0,0,0,1.9,5,6.83,6.83,0,0,0,3,2.56,10.61,10.61,0,0,0,4.05.71q5.67,0,8-3.81t2.29-10.8a33.79,33.79,0,0,0-.68-7.49,12.38,12.38,0,0,0-2-4.68,7,7,0,0,0-3.05-2.41A10.63,10.63,0,0,0,332.79,35.08Z" transform="translate(-0.62 0)"/><path class="cls-1" d="M401.3,61.08q0,3.24,6.33,3.24v4.1h-21v-4.1c3.22,0,4.82-1.08,4.82-3.24v-16q0-4.53-1.44-6.48a4.59,4.59,0,0,0-3.88-1.94,10.07,10.07,0,0,0-3.71.72,13.79,13.79,0,0,0-3.49,2,17.55,17.55,0,0,0-5.26,6.85V61.08q0,3.24,4.82,3.24v4.1H357.59v-4.1q6.2,0,6.2-3.24v-22q0-3.24-6.2-3.24V31.77h16.06l0,7.35a22.08,22.08,0,0,1,6.85-5.8,19.12,19.12,0,0,1,9.38-2.27q5.42,0,8.4,2.52t3,8.21Z" transform="translate(-0.62 0)"/><path class="cls-1" d="M451.27,35.88a9,9,0,0,0-3.82.61,3.51,3.51,0,0,0-1.73,1.83l-13.1,31.54q-1.51,3.67-2.77,6.44A21.55,21.55,0,0,1,427,81a10,10,0,0,1-3.64,2.88,14.41,14.41,0,0,1-13.32-1.51A8.09,8.09,0,0,1,407,75.69a5.69,5.69,0,0,1,.28-1.65,5.22,5.22,0,0,1,.94-1.73A5.68,5.68,0,0,1,409.79,71a4.42,4.42,0,0,1,2.24-.54,5.07,5.07,0,0,1,3.74,1.22A3.93,3.93,0,0,1,417,74.54a3.82,3.82,0,0,1-1.11,2.92,5.19,5.19,0,0,1-3,1.26,4.83,4.83,0,0,0,1.84,1.71,8.55,8.55,0,0,0,3.92.66A5.19,5.19,0,0,0,422.9,79a33.16,33.16,0,0,0,3.67-6.47l-14.4-34.15c-.82-1.67-2.54-2.51-5.18-2.51V31.77h20.59v4.11h-3.53c-1.39,0-2.09.45-2.09,1.37a2.56,2.56,0,0,0,.22,1.07l9.36,23.55L441,39a3.51,3.51,0,0,0,.22-1.15c0-1.3-1-1.94-3.1-1.94H436V31.77h15.27Z" transform="translate(-0.62 0)"/><path class="cls-2" d="M232.85,9.16A23.68,23.68,0,0,1,256.3,29a23,23,0,0,0,.66-5.47,23.75,23.75,0,0,0-47.49,0,22.38,22.38,0,0,0,.3,3.68A23.7,23.7,0,0,1,232.85,9.16Z" transform="translate(-0.62 0)"/><path class="cls-2" d="M332.07,9.58a23.68,23.68,0,0,1,23.45,19.84A23.74,23.74,0,1,0,309,27.63,23.7,23.7,0,0,1,332.07,9.58Z" transform="translate(-0.62 0)"/><path class="cls-1" d="M.76,84.35A23.06,23.06,0,0,1,5.21,84c2.44,0,4,.42,5.18,1.37A3.94,3.94,0,0,1,12,88.66,4.47,4.47,0,0,1,8.77,92.8v.06a4.86,4.86,0,0,1,3.89,4.73,5.06,5.06,0,0,1-1.6,3.78c-1.31,1.2-3.44,1.76-6.52,1.76a29,29,0,0,1-3.78-.22ZM3.2,92.07H5.41c2.57,0,4.09-1.34,4.09-3.16,0-2.21-1.68-3.08-4.15-3.08A10.61,10.61,0,0,0,3.2,86Zm0,9.05a13.45,13.45,0,0,0,2,.11c2.52,0,4.84-.92,4.84-3.67,0-2.57-2.21-3.64-4.87-3.64h-2Z" transform="translate(-0.62 0)"/><path class="cls-1" d="M17.34,96.64c.05,3.33,2.18,4.7,4.64,4.7a9,9,0,0,0,3.76-.7l.42,1.77a11.05,11.05,0,0,1-4.51.84c-4.17,0-6.67-2.75-6.67-6.83s2.41-7.31,6.36-7.31c4.42,0,5.6,3.89,5.6,6.38,0,.5-.06.9-.08,1.15Zm7.22-1.76c0-1.57-.64-4-3.42-4-2.49,0-3.58,2.3-3.78,4Z" transform="translate(-0.62 0)"/><path class="cls-1" d="M29.66,100.45a6.47,6.47,0,0,0,3.24,1c1.8,0,2.64-.9,2.64-2s-.7-1.82-2.52-2.49c-2.44-.87-3.59-2.21-3.59-3.84,0-2.18,1.77-4,4.68-4a6.75,6.75,0,0,1,3.33.84l-.62,1.79A5.23,5.23,0,0,0,34.05,91c-1.45,0-2.27.83-2.27,1.84s.82,1.63,2.58,2.3c2.35.89,3.56,2.07,3.56,4.09,0,2.38-1.85,4.06-5.07,4.06a7.71,7.71,0,0,1-3.81-.93Z" transform="translate(-0.62 0)"/><path class="cls-1" d="M44.05,85.52v3.9h3.53v1.87H44.05V98.6c0,1.68.47,2.63,1.85,2.63a5.12,5.12,0,0,0,1.42-.17l.12,1.85a6,6,0,0,1-2.19.34,3.42,3.42,0,0,1-2.66-1,5,5,0,0,1-1-3.53V91.29h-2.1V89.42h2.1V86.17Z" transform="translate(-0.62 0)"/><path class="cls-1" d="M70.73,102.13a17.66,17.66,0,0,1-5.79,1,8.86,8.86,0,0,1-9.69-9.52c0-5.63,3.89-9.74,10.22-9.74a11.68,11.68,0,0,1,4.7.87l-.59,2a9.85,9.85,0,0,0-4.17-.81c-4.59,0-7.59,2.86-7.59,7.59s2.89,7.62,7.28,7.62a7.92,7.92,0,0,0,3.25-.51V95H64.52v-2h6.21Z" transform="translate(-0.62 0)"/><path class="cls-1" d="M82.1,103l-.2-1.71h-.08a5.06,5.06,0,0,1-4.15,2,3.86,3.86,0,0,1-4.14-3.89c0-3.27,2.91-5.07,8.15-5v-.28a2.79,2.79,0,0,0-3.08-3.13,6.72,6.72,0,0,0-3.53,1l-.56-1.63A8.38,8.38,0,0,1,79,89.11c4.15,0,5.15,2.83,5.15,5.54v5.07a18.88,18.88,0,0,0,.23,3.25Zm-.37-6.92c-2.68-.06-5.74.42-5.74,3a2.18,2.18,0,0,0,2.33,2.35,3.37,3.37,0,0,0,3.27-2.26,2.48,2.48,0,0,0,.14-.79Z" transform="translate(-0.62 0)"/><path class="cls-1" d="M88.09,93.08c0-1.4,0-2.55-.11-3.66h2.15l.12,2.18h.08a4.68,4.68,0,0,1,4.26-2.49,4,4,0,0,1,3.83,2.71h.06A5.63,5.63,0,0,1,100,90.06a4.61,4.61,0,0,1,3-1c1.79,0,4.45,1.17,4.45,5.88v8H105V95.29c0-2.6-1-4.17-2.94-4.17a3.19,3.19,0,0,0-2.91,2.24,4.17,4.17,0,0,0-.2,1.23V103H96.57V94.85c0-2.16-.95-3.73-2.82-3.73a3.66,3.66,0,0,0-3.25,3.67V103H88.09Z" transform="translate(-0.62 0)"/><path class="cls-1" d="M112.81,96.64c.06,3.33,2.19,4.7,4.65,4.7a8.9,8.9,0,0,0,3.75-.7l.42,1.77a11,11,0,0,1-4.5.84c-4.17,0-6.67-2.75-6.67-6.83s2.41-7.31,6.36-7.31c4.42,0,5.6,3.89,5.6,6.38a8.75,8.75,0,0,1-.09,1.15ZM120,94.88c0-1.57-.64-4-3.42-4-2.49,0-3.58,2.3-3.78,4Z" transform="translate(-0.62 0)"/><path class="cls-1" d="M143.67,96.08c0,5-3.47,7.19-6.75,7.19-3.67,0-6.49-2.68-6.49-7,0-4.53,3-7.19,6.72-7.19S143.67,91.94,143.67,96.08Zm-10.75.14c0,3,1.71,5.21,4.11,5.21s4.12-2.22,4.12-5.27c0-2.29-1.15-5.2-4.06-5.2S132.92,93.64,132.92,96.22Z" transform="translate(-0.62 0)"/><path class="cls-1" d="M147,103V91.29h-1.9V89.42H147v-.65A6.38,6.38,0,0,1,148.6,84a4.68,4.68,0,0,1,3.3-1.26,5.81,5.81,0,0,1,2.1.39l-.33,1.9a3.86,3.86,0,0,0-1.57-.3c-2.1,0-2.63,1.84-2.63,3.92v.73h3.27v1.87h-3.27V103Z" transform="translate(-0.62 0)"/><path class="cls-1" d="M164,97l-2,5.94h-2.52L166,84.09h2.94L175.34,103h-2.61l-2-5.94Zm6.18-1.9-1.84-5.44c-.42-1.23-.7-2.35-1-3.44h-.06c-.28,1.12-.59,2.27-1,3.42l-1.85,5.46Z" transform="translate(-0.62 0)"/><path class="cls-1" d="M177.94,83.09h2.47V103h-2.47Z" transform="translate(-0.62 0)"/><path class="cls-1" d="M184.55,83.09H187V103h-2.46Z" transform="translate(-0.62 0)"/><path class="cls-1" d="M199.61,86.17h-5.74V84.09h14v2.08h-5.77V103h-2.47Z" transform="translate(-0.62 0)"/><path class="cls-1" d="M212.27,85.61a1.53,1.53,0,0,1-3.05,0,1.5,1.5,0,0,1,1.54-1.54A1.46,1.46,0,0,1,212.27,85.61ZM209.53,103V89.42H212V103Z" transform="translate(-0.62 0)"/><path class="cls-1" d="M216.08,93.08c0-1.4,0-2.55-.11-3.66h2.15l.11,2.18h.09a4.65,4.65,0,0,1,4.25-2.49,4,4,0,0,1,3.84,2.71h.06A5.63,5.63,0,0,1,228,90.06a4.6,4.6,0,0,1,3-1c1.8,0,4.46,1.17,4.46,5.88v8H233V95.29c0-2.6-1-4.17-2.94-4.17a3.19,3.19,0,0,0-2.91,2.24,3.87,3.87,0,0,0-.2,1.23V103h-2.41V94.85c0-2.16-.95-3.73-2.83-3.73a3.66,3.66,0,0,0-3.24,3.67V103h-2.41Z" transform="translate(-0.62 0)"/><path class="cls-1" d="M240.8,96.64c.06,3.33,2.19,4.7,4.65,4.7a8.93,8.93,0,0,0,3.75-.7l.42,1.77a11,11,0,0,1-4.51.84c-4.17,0-6.66-2.75-6.66-6.83s2.41-7.31,6.36-7.31c4.42,0,5.6,3.89,5.6,6.38a8.75,8.75,0,0,1-.09,1.15ZM248,94.88c0-1.57-.65-4-3.42-4-2.49,0-3.58,2.3-3.78,4Z" transform="translate(-0.62 0)"/></svg>