<?xml version="1.0" encoding="utf-8"?>
<!-- Generator: Adobe Illustrator 24.3.0, SVG Export Plug-In . SVG Version: 6.00 Build 0)  -->
<svg version="1.1" id="Layer_1" xmlns="http://www.w3.org/2000/svg" xmlns:xlink="http://www.w3.org/1999/xlink" x="0px" y="0px"
	 viewBox="0 0 452 85" style="enable-background:new 0 0 452 85;" xml:space="preserve">
<style type="text/css">
	.st0{fill:#A991D4;}
	.st1{font-family:'Superclarendon-Regular';}
	.st2{font-size:72px;}
</style>
<text transform="matrix(1 0 0 1 -2.4736 68.4209)" class="st0 st1 st2">chrologony</text>
<path class="st0" d="M232.85,9.16c11.85,0,21.66,8.6,23.45,19.84c0.42-1.76,0.65-3.59,0.65-5.47C256.96,10.53,246.33,0,233.22,0
	s-23.74,10.53-23.74,23.53c0,1.25,0.1,2.48,0.29,3.69C212.26,16.86,221.65,9.16,232.85,9.16z"/>
<path class="st0" d="M332.07,9.58c11.85,0,21.66,8.6,23.45,19.84c0.42-1.76,0.65-3.59,0.65-5.47c0-12.99-10.63-23.53-23.74-23.53
	s-23.74,10.53-23.74,23.53c0,1.25,0.1,2.48,0.29,3.69C311.47,17.28,320.86,9.58,332.07,9.58z"/>
</svg>
